<svg height="31.999998" viewBox="0 0 8.466666 8.4666661" width="31.999998" xmlns="http://www.w3.org/2000/svg"><g fill="#af9dd9" stroke-linecap="square"><path d="m.28488334.28488334v.85573776 1.7638944h.52203429a.33370347.33370347 135 0 0 .33370347-.3337035v-1.4301909h1.4308461a.33370347.33370347 135 0 0 .3337035-.33370347v-.52203429h-1.7645496zm5.27661266 0v.52203429a.33370347.33370347 45 0 0 .3337035.33370347h1.4308461v1.4301909a.33370347.33370347 45 0 0 .3337035.3337035h.5220342v-1.7638944-.85573776h-.8557377zm-5.27661266 5.27726796v1.7638943.8557377h.85573776 1.7645496v-.5220342a.33370347.33370347 45 0 0 -.3337035-.3337035h-1.4308461v-1.4301908a.33370347.33370347 45 0 0 -.33370347-.3337035zm7.04116226.3337035v1.4301908h-1.4308461a.33370347.33370347 135 0 0 -.3337035.3337035v.5220342h1.7645496.8557377v-.8557377-1.7638943h-.5220342a.33370347.33370347 135 0 0 -.3337035.3337035z" stroke-width=".26"/><path d="m2.6094 2.881599h3.247868v1.546787h-3.247868z" stroke-width=".321917"/><path d="m1.844952 4.68882h2.207128v.896248h-2.207128z" stroke-width=".202003"/><path d="m4.414587 4.68882h2.207128v.896248h-2.207128z" stroke-width=".202003"/><g stroke-width=".201"><path d="m6.235901-.479942h1.354399v.197834h-1.354399z" transform="matrix(.70710678 .70710678 -.70710678 .70710678 0 0)"/><path d="m.249064 5.506896h1.354399v.197834h-1.354399z" transform="matrix(-.70710678 .70710678 .70710678 .70710678 0 0)"/></g></g></svg>