<svg height="32" viewBox="0 0 8.4666662 8.4666662" width="32" xmlns="http://www.w3.org/2000/svg"><g fill="#af9dd9"><path d="m.51406 5.613177h7.438547v.588342h-7.438547z"/><path d="m1.3161987.85576172v4.58938398h5.8342692v-4.58938398zm2.8918132.58187658c.3094751-.0068554.6156792.1108005.8428426.3379639.3304198.3304197.430486.8297077.2516642 1.2614217-.1412187.3409322-.4960908.4751422-.8433594.5643067v1.037146.2247924h-.4511352v-.2247924-1.3379029h.2263428c.2862754-.0000001.5426037-.1706316.6521565-.4351155.109553-.2644842.0484317-.5675514-.1539957-.7699789-.2024272-.2024272-.5049782-.2635486-.7694621-.1539957-.264484.1095529-.4356323.3658811-.4356323.6521565v.2268596h-.4511353v-.2268596c0-.4672838.282971-.88933.7146851-1.0681518.1349106-.055882.2763583-.084734.4170288-.08785z"/><g stroke-linecap="square" stroke-width=".751713"><path d="m4.4276856 6.0696092-1.1049923.0002093-1.877939 1.5413205 1.1049923-.0002093z"/><path d="m3.8745026 6.0696092 1.1049924.0002093 1.877939 1.5413205-1.1049923-.0002093z"/></g></g></svg>