<svg height="31.999998" viewBox="0 0 8.466666 8.4666661" width="31.999998" xmlns="http://www.w3.org/2000/svg"><path d="m7.9487052 6.0596817.0003027 1.8893262-1.8893263-.0003017m-5.54172014-5.5417212-.00030267-1.88932621 1.88932631.00030166" fill="none" stroke="#af9dd9" stroke-linecap="square" stroke-linejoin="round" stroke-width=".761"/><g fill="#af9dd9" transform="matrix(2.7493169 0 0 2.7493169 1.037252 .932791)"><path d="m1.252.15a.1.1 0 0 0 -.082.03l-.57.57h-.282c-.093 0-.168.067-.168.15v.6c0 .083.075.15.168.15h.282l.57.57c.066.067.18.02.18-.074v-1.89a.106.106 0 0 0 -.098-.106"/><path d="m1.575.675c.45.525 0 1.05 0 1.05m.3-1.35c.675.825 0 1.65 0 1.65"/></g></svg>