<svg height="31.999998" viewBox="0 0 8.466666 8.4666661" width="31.999998" xmlns="http://www.w3.org/2000/svg"><path d="m7.9487052 6.0596817.0003027 1.8893262-1.8893263-.0003017m-5.54172014-5.5417212-.00030267-1.88932621 1.88932631.00030166" fill="none" stroke="#af9dd9" stroke-linecap="square" stroke-linejoin="round" stroke-width=".761"/><path d="m2.8649478 1.2248091a.30622336.30622336 0 0 0 -.3062234.3062234v.2404895h-.4809791a.30622336.30622336 0 0 0 -.3062234.3062233v.4809791h-.2404896a.30622336.30622336 0 0 0 -.3062232.3062234v.1603263a.30622336.30622336 0 0 0 .3062232.3062234h.2404896v1.8036716h-.2404896a.30622336.30622336 0 0 0 -.3062232.3062233v.1603265a.30622336.30622336 0 0 0 .3062232.3062232h.2404896v.4809791a.30622336.30622336 0 0 0 .3062234.3062234h.4809791v.2404896a.30622336.30622336 0 0 0 .3062234.3062234h.1603263a.30622336.30622336 0 0 0 .3062234-.3062234v-.2404896h1.8036716v.2404896a.30622336.30622336 0 0 0 .3062233.3062234h.1603264a.30622336.30622336 0 0 0 .3062233-.3062234v-.2404896h.4809791a.30622336.30622336 0 0 0 .3062234-.3062234v-.4809791h.2404895a.30622336.30622336 0 0 0 .3062234-.3062232v-.1603265a.30622336.30622336 0 0 0 -.3062234-.3062233h-.2404895v-1.8036716h.2404895a.30622336.30622336 0 0 0 .3062234-.3062234v-.1603263a.30622336.30622336 0 0 0 -.3062234-.3062234h-.2404895v-.4809791a.30622336.30622336 0 0 0 -.3062234-.3058224h-.4809791v-.2404896a.30622336.30622336 0 0 0 -.3062233-.3062234h-.1603264a.30622336.30622336 0 0 0 -.3062233.3062234v.2404896h-1.8036716v-.2404896a.30622336.30622336 0 0 0 -.3062234-.3062234zm2.6353646 2.1243242a.87618359.87618359 0 0 1 -.1202448 1.7431484h-2.3367569a.87618359.87618359 0 0 1 -.1202447-1.7431484 1.3146762 1.4605732 0 0 1 2.5788496 0zm-2.4357583 2.0842429a.29239521.29239521 0 0 1 0 .5847903.29239521.29239521 0 0 1 0-.5847903zm2.3367567 0a.29239521.29239521 0 0 1 0 .5847903.29239521.29239521 0 0 1 0-.5847903zm-1.1679775.2921947a.29239522.29239522 0 0 1 0 .5847904.29259564.29259564 0 0 1 0-.5851912z" fill="#af9dd9" stroke-width=".400815"/></svg>