<svg height="31.999998" viewBox="0 0 8.466666 8.4666661" width="31.999998" xmlns="http://www.w3.org/2000/svg"><g fill="#af9dd9" stroke-linecap="square"><path d="m.83664223 3.9307981v3.925192h6.79338217v-3.925192zm3.37420077.840156c.00727-.0001865.014337 0 .021626 0 .4672375.0000147.850287.3830646.8503022.850302-.0000104.3212259-.181357.6034451-.4463438.7482312v1.0777994h-.8061875v-1.0769344c-.265413-.1445047-.4463336-.4271749-.4463438-.7490962.0000147-.459937.3697191-.8385651.8269469-.850302z" stroke-linejoin="round" stroke-width=".072837"/><path d="m6.7018813 4.0716307v-.861264c0-.8904311-.4758598-1.7161076-1.2469957-2.1613231-.7711358-.44521557-1.7228554-.44521553-2.4939914 0-.7711359.4452155-1.2469957 1.270892-1.2469957 2.1613231v.861264h.6898275v-.861264c0-.6455154.3430493-1.240579.902082-1.5633367s1.2471721-.3227577 1.8062048 0c.5590328.3227577.902082.9178213.902082 1.5633367v.861264z" stroke="#af9dd9" stroke-width=".208989"/></g></svg>