<svg height="31.999998" viewBox="0 0 8.466666 8.4666661" width="31.999998" xmlns="http://www.w3.org/2000/svg"><path d="m.82785645-4.0886393a3.4054835 3.4054823 0 0 0 1.70273845 2.949174 3.4054835 3.4054823 0 0 0 3.4054769 0 3.4054835 3.4054823 0 0 0 1.7027384-2.949174h-2.6918253v1.7983398h-1.2288656v-1.7983398z" fill="#af9dd9" transform="rotate(90)"/><path d="m7.6388166 4.0886707a3.4054835 3.4054823 0 0 1 -1.7027418 2.9492342 3.4054835 3.4054823 0 0 1 -3.4054835 0 3.4054835 3.4054823 0 0 1 -1.70274167-2.9492342" fill="none" stroke="#af9dd9" stroke-dashoffset="3.40535" stroke-width=".579" transform="matrix(0 1 1 0 0 0)"/><path d="m4.088671 3.71821h1.798308v1.228684h-1.798308z" fill="#af9dd9"/></svg>